<svg width="26" height="23" viewBox="0 0 26 23" fill="none" xmlns="http://www.w3.org/2000/svg">
<path d="M6.096 19C4.60267 19 3.42933 18.7867 2.576 18.36C1.72267 17.9333 1.11467 17.2933 0.752 16.44C0.410667 15.5867 0.24 14.5307 0.24 13.272V5.88C0.24 4.64267 0.410667 3.608 0.752 2.776C1.09333 1.92267 1.69067 1.28267 2.544 0.855999C3.39733 0.408 4.58133 0.184 6.096 0.184H15.44C16.9333 0.184 18.096 0.408 18.928 0.855999C19.7813 1.28267 20.3787 1.92267 20.72 2.776C21.0827 3.608 21.264 4.64267 21.264 5.88V10.072C21.264 11.672 21.0613 12.952 20.656 13.912C20.272 14.8507 19.5787 15.6507 18.576 16.312C17.9573 16.7173 16.9013 17.208 15.408 17.784C16.304 17.9333 17.136 18.0933 17.904 18.264C18.6933 18.4133 19.376 18.5413 19.952 18.648C20.656 18.776 21.3707 18.8933 22.096 19C22.8427 19.0853 23.4933 19.1493 24.048 19.192C24.6027 19.256 24.944 19.2987 25.072 19.32L24.368 22.072C24.2827 22.0933 24.0587 22.136 23.696 22.2C23.3333 22.2853 22.8427 22.328 22.224 22.328C21.3067 22.328 20.4427 22.232 19.632 22.04C18.8427 21.8693 17.968 21.6347 17.008 21.336C16.1547 21.0587 15.3653 20.7813 14.64 20.504C13.936 20.2267 13.2 19.9707 12.432 19.736C11.664 19.5227 10.7787 19.3413 9.776 19.192C8.77333 19.064 7.54667 19 6.096 19ZM7.024 15.928H10.992C12.4213 15.928 13.5733 15.768 14.448 15.448C15.344 15.1067 15.9947 14.52 16.4 13.688C16.8267 12.8347 17.04 11.6507 17.04 10.136V5.496C17.04 4.87733 16.816 4.35467 16.368 3.928C15.92 3.48 15.312 3.256 14.544 3.256H7.024C6.256 3.256 5.63733 3.45867 5.168 3.864C4.69867 4.26933 4.464 4.81333 4.464 5.496V13.656C4.464 14.3813 4.688 14.9467 5.136 15.352C5.60533 15.736 6.23467 15.928 7.024 15.928Z" fill="white"/>
</svg>
